<?xml version="1.0" encoding="utf-8"?>
<!-- Generator: Adobe Illustrator 23.1.1, SVG Export Plug-In . SVG Version: 6.00 Build 0)  -->
<svg version="1.1" xmlns="http://www.w3.org/2000/svg" xmlns:xlink="http://www.w3.org/1999/xlink" x="0px" y="0px"
	 viewBox="0 0 1024 1024" style="enable-background:new 0 0 1024 1024;" xml:space="preserve">
<style type="text/css">
	.st0{opacity:0.65;fill:#05FF2D;}
	.st1{fill:#ED2024;}
	.st2{fill:#EF3C40;}
	.st3{opacity:0.42;}
</style>
<g id="Layer_1">
	<path class="st0" d="M1005,419.1c-114.5,2.6-224.8,9.2-339.4,13.9c-11.3-29.3-22.6-60.3-33.9-91.5c6.9-2.6,14-4.8,21.1-6.7
		c15.3-4.1,30.8-6.9,45.8-9.2c15-2.2,29.5-3.8,43-5.4c12-1.5,19.8-3.4,24.1-5.8c4-2.4,5.4-5.3,3.2-8.6c-0.3-0.8-1.1-1.6-1.9-2.5
		c-0.9-0.8-2-1.7-3.3-2.5c-2.6-1.6-5.9-3.2-10-4.7c-8.1-2.9-19-5.3-32-6.1c-0.1-1.3-0.3-4-0.3-5.4c13.1-0.1,21.2-0.5,26.3-1.5
		c5-1,6.9-2.6,7.4-4.5c0.9-3.9-4.1-9-0.7-12.3c-13.7-0.2-27.3-0.1-41,0.1c-13.7,0.2-27.5,0.5-41.6,0.9c-1.7,0.3-3.9,0.7-6.2,1.1
		c-2.4,0.4-4.9,1-7.5,1.5c-5.1,1.1-10.3,2.3-13.7,3.2c-11.3,2.9-22.6,6.3-33.6,10.5c-10.4-28.2-20.7-55.6-31.1-80.9
		c-9.1-22.3-19.6-59.8-29.3-76.7c6.1-13.7,12.7-27.2,17.9-41.2c-2.5-1.1-3.8-1.6-1.3-11.1c-5.8,13.7-13,32.8-20.1,48.9
		c-0.9-2.3-1.7-4.6-2.5-6.9c6.6-14.8,14.5-30.9,18.8-43.5c-1.3-0.5-3.8-1.6-5.1-2.1c-1.3-0.5,2.5-9.5,6.3-18.4
		c-3.8,8.9-11.4,26.9-15.2,35.8c-1.3-0.5-3.8-1.6-5.1-2.1c-1.3-0.5,2.5-9.5,6.3-18.4C547.8,66,549,56,544,64.4
		c-3.3,7.7-6.5,15.3-9.8,23c0-0.1-0.1-0.2-0.1-0.3c12.4-33.8,13.5-52.8,9.8-54.4c-2.5,9.5-6.3,7.9-8.8,17.4
		c7.6-28.4,13.9-57.4-2.5-22.1c-5.8,13.2-11.5,26.3-17.2,39.5c-1.4-2.9-3.3-8.3-5.3-13.7c1.3,3.6,3.2,8.7,5.2,14
		c-0.9,2-1.8,4-2.6,6.1c-0.3-0.8-0.6-1.6-0.9-2.4c-1.7,0.6-6.4-6.8-4.3,1.6c0.8,2.3,1.7,4.6,2.5,6.9c-0.2,0.4-0.3,0.8-0.5,1.2
		c-9.5-20.8-16.6-30.2-18.7-29.5c3.8,7.8,1.3,8.7,5.1,16.5c-11.5-23.3-23.9-46.3-12.8-13.7c5.7,16,11.5,31.9,17.2,47.9
		C472.3,167,444.5,232,417,297.2c-12.2,1.1-24.5,2.9-36.8,5.3c-15,3-30,7.1-44.9,12.6c-14.8,5.5-29.5,12.6-43.5,21.5
		c-7,4.5-13.8,9.5-20.3,15c-1.6,1.4-3.2,2.7-4.8,4.2l-4.7,4.4l-4.5,4.6c-1.5,1.5-2.9,3.2-4.3,4.8c-5.7,6.5-10.9,13.4-15.5,20.7
		c-4.6,7.3-8.6,15-12.1,22.8c-3.3,7.9-6.2,15.9-8.4,24c-0.6,2-1,4.1-1.5,6.1l-0.7,3c-0.2,1-0.4,2-0.6,3l-0.9,4.9
		c-31.1,1.4-63.4,3.5-87.9,6.4c-15.2,2.2-30.6,4.8-45.9,7.4c7.2,0.8,13.9,1.7,19.7,2.6C83.7,471,68,471.5,62,473
		c-33.3,4.3-14.2,7-1.2,11.2c9.3,1.7-3,5.3,11.5,6.9c-10.4,0.3-15.7,0.5-26.2,0.8c-1.1,2,32.2-2.3,25,1.2
		c-10.1-0.3-21.3,1.3-31.8,1.6c3.7,2.5,36.2-0.4,34.7,2.2c-5.6,0.8-29.5-2.4-31.4,1c-0.4,0.7,10.1,0.3,15.3,0.2
		c-32.1,2.3-49.7,6.1-20.2,8.5c-10.2,0.3-24.7-0.5-35.4,0.4c0,0,0.1,0,0.1,0c5.4-0.1,14.7,0.2,19.7,0c-6.1,0.2-12.2,0.4-18.4,0.6
		c1,0.4,2.1,0.8,3.3,1.2c4.6,0.2,9.2,0.4,14,0.2c-4.1,0.1-8.1,0.2-12.2,0.4c3.1,0.9,6.6,1.8,10.5,2.6c14.6,1.5,28.6,4,36.4,3.8
		c51.7-0.8,103.6-1.9,155.4-3.6c1.2,14.7,3.5,29.7,7.9,44.5c2.2,7.9,5.1,15.7,8.4,23.4c3.3,7.7,7.3,15.1,11.6,22.3
		c4.4,7.2,9.5,14.1,14.9,20.5c5.4,6.5,11.4,12.5,17.7,18.1c0.5,0.5,1.1,0.9,1.6,1.4c-46.5,112.6-92.6,224.9-138.6,335.9
		c-6.3,18.4,0,10.5,2.6,11.6c15.2-35.8,29-72.1,43-97.9c3.8-9,1.3,11,7.6,3.2c3.8-9,11.4-26.9,15.2-35.8c7.6-7.4,3.8,12.1,11.4,4.7
		c7.6-7.4,20.2-44.2,26.5-52.1c13.9-25.8-3.8,19.5-15.2,46.3c6.3-7.9-7.6,17.9-5,19c5.1,2.1,10.1,4.2,29.1-30
		c5.1-8.4,5.1,2.1,7.6,3.2c23.8-56.2,48.7-114.9,72.7-173.7c8.8,3.6,17.7,6.6,26.6,9.1c14.9,4.2,29.9,7.2,44.8,9.1
		c14.9,2,29.8,3,44.5,3.2c7.4,0.1,14.8,0,22.1-0.3c7.4-0.3,14.7-0.8,22.3-1.5c1.7-0.3,3.1-0.7,4.3-1c1.1-0.3,2.1-0.7,3-1
		c1.1-0.6,1.4-1.2,1.3-1.8c-0.2-1.2-1.9-2.3-2.1-3.7l-2.9,0.3l-2.6,0.3c-1.7,0.2-3.4,0.3-5,0.5c-3.3,0.3-6.6,0.5-9.9,0.7
		c-6.5,0.4-12.9,0.6-19.1,0.6c-12.4,0-24-0.9-33.8-3.1c-3.3-0.3-1.5-1.5,0.3-3c1.8-1.6,3.6-3.4,0.5-5.1c-3.2-0.3-8.1-0.7-12.9-1.3
		c-2.4-0.3-4.8-0.6-7-0.9c-2.2-0.3-4.2-0.6-5.8-0.9c-2.9-2.6-0.9-4.3,1-6c1.9-1.8,3.8-3.6,1-6c-2.7-2.5-10.3-4.2-17.8-6.1
		c-7.5-1.9-15-4-17.5-6.2c-4.2-2-5.4-3.1-4.7-3.4c0.4-0.2,1.2-0.1,2.4,0.1c1.2,0.2,2.8,0.4,4.7,0.8c7.4,1.6,19.3,4.1,28.3,5.7
		c-2.7-1.9,0.2-1.3,4-0.7c3.7,0.6,8.2,1.3,8.4-0.1c0.4-2.7,0.8-5.4-1.8-8.3c-0.6-0.7-1.4-1.5-2.5-2.3c-1-0.8-2.3-1.6-3.8-2.5
		c-3-1.7-7-3.6-12.3-5.8c-5.2-2.6,1.3-5.3,1.8-8c-8-1.8-15.9-4-23.6-6.7c-4.1-1.4-8.1-3-12.1-4.7c13.3-33.5,26.2-66.8,38.2-99.4
		c1.7-4.5,3.4-9,5.2-13.6c4-0.3,8.1-0.5,12.1-0.8c-0.7-0.7-1-1.3,1.4-1.7c10.3-0.9,24.6-0.8,39.4-1.2c2.2-0.2,4.4-0.4,6.5-0.6
		c1.7-0.5,2.1-1.2,2.3-1.6c6.7-0.2,12.6-0.3,18.2-0.3c2.1-0.2,4.3-0.4,6.4-0.6c0.6,4.6,1.4,9.3,2.3,13.9l0.8,3.8l0.4,1.9l0.5,1.9
		l1.9,7.7l2.3,7.6c0.4,1.3,0.8,2.5,1.3,3.8l1.4,3.8c3.8,10.1,8.5,19.9,14.2,29.3c5.7,9.4,12.3,18.2,19.8,26.3
		c7.4,8.1,15.7,15.4,24.3,21.9c17.4,13,36.6,22.7,56.2,29.9c-12.6-4.7-24.9-10.5-36.6-17.4c-11.7-6.9-22.9-15.2-33-24.6
		c-10.1-9.5-19-20.2-26.5-31.8c-7.4-11.6-13.3-24-17.7-36.7c-4.4-12.7-7.3-25.6-9.1-38.5c-0.1-1-0.3-2.1-0.4-3.1
		c1.4-0.1,2.8-0.3,4.2-0.4c0.1,1.3,0.3,2.7,0.5,4c1.7,12.8,4.5,25.8,8.8,38.5c4.3,12.7,10.1,25.1,17.7,36.6
		c7.5,11.5,16.6,22.2,26.9,31.3c1.3,1.1,2.6,2.3,3.9,3.4l4,3.2l2,1.6l2.1,1.5l4.2,3l4.3,2.8l2.2,1.4l2.2,1.3l4.4,2.6l4.5,2.4
		c12,6.4,24.6,11.3,37.4,15.1c-0.4,1.3-1.3,3.8-1.7,5.1c18.1,6.3,36.6,10.7,55.1,13.7c13.9,2.3,27.8,3.8,41.7,4.8
		c30.5,81,61,161.8,91.1,242c6.8,15.9,5.6,7.1,7.3,6.5c-11.9-32.3-24.7-64.4-31.9-89.2c-3-8.1,6.4,6.8,5.2-1.9
		c-3-8.1-8.9-24.3-11.9-32.4c-0.4-9,8.1,6.2,7.7-2.8c-0.4-9-14-40.7-15.3-49.4c-7.2-24.9,8.5,15.2,17.5,39.5
		c-1.3-8.7,6,16.2,7.7,15.6c3.4-1.2,6.9-2.5-2.5-35.8c-2.1-8.4,3.4-1.2,5.2-1.9c-11.3-30.6-22.9-62.1-34.7-93.8
		c2.9-0.8,5.6-1.7,8.2-2.7c-3.1,0-6.2-0.1-9.2-0.2c-0.5-1.3-1-2.6-1.5-3.9c3.5,0,7.1,0,10.6,0c3.3,0,6.6,0,10,0
		c4.2-1.9,7.9-3.9,11.1-5.7c6.3-4.2,10.7-9,10.1-13c-0.8-4-6.3-7-19.3-9c-3.2,0.3-7.9,0.8-11.9,1.1c-4,0.3-7.2,0.5-7.2,0.5
		c-2.7-2.5-1.4-5.5-0.1-8.3c-5.4,0.2-10.8,0.2-16.2,0.2c-0.3-0.7-0.6-1.5-0.8-2.2c6-0.1,12.1-0.3,18.1-0.6c1.2-3.3,0.6-6.1-8.3-7.5
		c-3-0.8-7.6-1.1-13.3-1.2c-17.2-45.6-34.8-91.2-52.6-135c6.6-0.6,13.3-1.3,19.9-1.9c16.8-2.5,33.7-5,49.9-6.4
		c24.1-1.7,54.9-1.7,78.5-2.4c-3.9-6.8,53.3-12.4,41.6-19c15.7-0.5,39.2-1.2,40.4-3.2c3.4-6,15.2-13.2,56.7-18.4
		c16.3-1.5,41.4,0,47.1-1.4C1026.3,422.4,996,421.3,1005,419.1z M485.1,443.3c0.7-7.1,1.7-14.3,3.1-21.4
		c2.6-13.2,6.7-26.5,12.4-39.3c0.2,0.6,0.3,1.5,0.7,1.9c0.4,0.4,0.9,0.2,2.1-1.5c-5.3,13.1-8.8,26.4-11.2,39.6
		c-1.2,6.9-2.1,13.7-2.7,20.5C488.1,443.1,486.6,443.2,485.1,443.3z M499.8,382.3c0.1-0.1,0.3-0.2,0.4-0.2
		C500,382.1,499.9,382.2,499.8,382.3z M500.3,382c0.1,0,0.2,0.1,0.2,0.1C500.4,382.1,500.3,382.1,500.3,382z M594.8,360.4
		c9.3,25.1,18.7,50.2,28.1,75.4c-18.6,1.3-45.2,2.8-75.9,4.5c0.5-3.1,1-6.2,1.7-9.3c2.2-9.9,5.4-19.3,9.7-28.1
		c1.2-2.1,2.2-4.4,3.5-6.5c0.6-1,1.2-2.1,1.9-3.2l2-3.1c2.8-4.1,5.7-8.1,9.1-11.8C580.4,371.7,587.2,365.7,594.8,360.4z
		 M549.7,127.2c2.4,6.5,4.8,13.1,7.2,19.6c-2.9-5.9-5.5-12-7.9-18.1C549.2,128.3,549.5,127.8,549.7,127.2z M543.7,124.2l-2.6,0.9
		c-0.2-0.4-0.3-0.8-0.5-1.1c0.5-1.3,1.1-2.7,1.7-4C542.8,121.4,543.3,122.9,543.7,124.2z M319.8,392.4c11.1-8.2,23.4-14.9,35.8-20.9
		c7.5-3.7,18.5-6.1,28.9-8.2c1.7-0.4,3.3-0.7,5-1c-12.1,28.9-24.2,57.9-36.3,86.8c-29.6,1.2-56.1,2.2-76.5,2.8
		c3.2-11,8-21.3,14.4-30.6C298.8,410.2,308.7,400.6,319.8,392.4z M283.9,546.8c-2.8-7.2-5.1-14.7-7-22.5c-1.2-5.3-2.2-10.8-3-16.2
		c6.5,0.4,13.1,0.6,20.3-0.2c0.4-0.7,0.7-1.3,1.1-2c11,0.3,22.3,0.7,33.9,1.1c-9.6,23.1-19.2,46.3-28.8,69.4
		C293.7,567.5,288.2,557.6,283.9,546.8z M420.8,446.3c20.3-48.3,42.6-98.5,62.7-146.6c0,0,0.1-0.1,0.1-0.1c0.1-0.1,0.1-0.2,0.1-0.3
		c9.9-23.8,19.3-47.2,27.6-69.6c4.7-12.6,12.3-28.5,19.2-43.9c14.1,38.6,28.3,77.2,42.6,115.9c-14.4,8.5-28.1,18.7-40.2,30.9
		c-7.8,7.8-14.8,16.4-21,25.6c-6.1,9.2-11.3,19-15.5,29.1c-7.5,18.3-11.8,37.3-13.5,56C462.4,444.4,441.5,445.3,420.8,446.3z
		 M680.9,655.9c-14-2.2-28-5-42-8.8c-7-1.9-13.9-4-20.8-6.5c-6.9-2.5-13.8-5.2-20.5-8.3c-6.7-3.1-13.4-6.5-19.9-10.3
		c-6.5-3.9-12.8-8-18.8-12.7c-6-4.7-11.8-9.7-17.1-15.1c-5.3-5.5-10.4-11.3-14.8-17.5c-1.2-1.5-2.2-3.1-3.3-4.7
		c-1.1-1.6-2.2-3.1-3.1-4.8l-2.9-4.9c-0.9-1.7-1.8-3.3-2.7-5l-1.3-2.5l-1.2-2.6l-2.4-5.1l-2.1-5.2l-1-2.6l-0.9-2.6
		c-4.8-13.6-7.8-27.5-9.2-41.2c0,0,0,0,0,0c1.5,11.5,4.1,23.4,8.1,35.2c4.2,12.3,10,24.4,17.2,35.7c0.9,1.4,1.8,2.8,2.8,4.2l2.9,4.1
		l3.1,4l1.5,2l1.6,1.9l3.2,3.8c1.1,1.2,2.3,2.4,3.4,3.7c2.2,2.5,4.7,4.7,7,7.1c9.6,9.1,19.9,16.9,30.3,23.6
		c15.1,9.3,30.9,16.1,46.7,21.1c15.8,5,31.6,8.4,47.2,10.8c11.4,1.7,22.7,2.9,34,3.8c0.3,0.9,0.7,1.8,1,2.7
		C698.2,658.3,689.6,657.2,680.9,655.9z M542,522.1c5.9,21.1,17.9,39.9,34.7,54.7c16.8,14.9,38.1,25.6,61,32.8
		c-5.9-1.7-11.6-3.7-17.2-6c-5.6-2.2-11-4.7-16.2-7.4c-5.3-2.7-10.2-5.7-15-8.9c-4.8-3.2-9.3-6.8-13.5-10.5
		C558.9,561.9,547.3,542.9,542,522.1z M637.7,609.7c17.4,5.2,35.7,8.4,54.3,10.3c0.1,0.4,0.3,0.8,0.4,1.1
		C673.7,618.8,655.2,615.3,637.7,609.7z M688.6,611.1c-6.6-0.6-12.8-1.5-18-2.6c-16-3.9-31.7-8.7-46.5-15
		c-14.7-6.3-28.4-14.1-39.9-23.8c-11.5-9.6-20.6-21-27.1-33.8c-3.2-6.4-5.8-13.1-7.7-20.1c-1.9-7-3.1-14.2-3.8-21.4
		c-0.1-1.2-0.2-2.4-0.3-3.6c30.9-3,62.4-6.1,94.6-9.3C656.2,524.8,672.4,568,688.6,611.1z"/>
</g>
<g id="Layer_2">
	<g>
		<g>
			<g>
				<g>
					<path class="st1" d="M578.3,209.6c31,76.5,62,172.4,93.1,249.7c37.6,92.7,74.7,194.4,109,288.2c-1.6,0.6-7-6.3-4.9,1.8
						c9,32.2,5.7,33.4,2.4,34.6c-1.6,0.6-8.6-23.5-7.4-15c-8.6-23.5-23.7-62.3-16.8-38.2c1.2,8.4,14.3,39.1,14.7,47.8
						c0.4,8.7-7.8-6-7.4,2.7c2.9,7.8,8.6,23.5,11.4,31.3c1.2,8.4-7.8-6-4.9,1.8c6.9,24.1,19.2,55.1,30.6,86.3c-1.6,0.6-0.4,9-7-6.3
						C689.4,621.2,583.3,340.8,485.8,66.1c-10.6-31.6,1.3-9.3,12.3,13.2c-3.7-7.5-1.2-8.4-4.9-15.9c2.5-0.9,12.3,13.2,24.6,44.2
						c-2.9-7.8-5.7-15.6-8.6-23.5c-2-8.1,2.5-0.9,4.1-1.5c2.9,7.8,5.7,15.6,6.5,15.3c0.8-0.3,2.5-0.9,3.3-1.2
						c-2.9-7.8-8.6-23.5-11.4-31.3c2.9,7.8,5.7,15.6,6.5,15.3c0.8-0.3,2.5-0.9,3.3-1.2c6.5,15.3,13.5,39.4,20,54.8l2.5-0.9
						c-4.9-16-14.3-39.1-20-54.8c3.7,7.5,4.5,7.2,6.2,6.6c9.4,23.2,15.5,47.5,26.5,70.1c-2.9-7.8-5.7-15.6-8.6-23.5
						C558,146.1,568.9,186.4,578.3,209.6z"/>
				</g>
			</g>
		</g>
		<g>
			<g>
				<g>
					<path class="st1" d="M512.9,235.5c-32,87.5-81.1,190-113.8,278.1c-38.7,105.9-86,218.5-129.5,322.4c-2.4-1-2.4-11.2-7.3-3.1
						c-18.2,33.1-23,31.1-27.9,29c-2.4-1,10.9-26,4.8-18.3c10.9-26,27.9-69.8,14.5-44.8c-6.1,7.6-18.2,43.3-25.4,50.4
						c-7.3,7.1-3.7-11.7-10.9-4.6c-3.6,8.7-10.9,26-14.5,34.7c-6.1,7.6-3.7-11.7-7.3-3.1c-13.3,25-26.6,60.1-41.2,94.7
						c-2.4-1-8.5,6.6-2.4-11.2C276.6,655.8,402.6,342,533.3,40.4c15.7-34.1,9.7-6.1,2.4,21.4c2.4-9.2,6.1-7.6,8.5-16.8
						c3.6,1.5,2.4,21.4-10.9,56.5c3.6-8.7,7.3-17.3,10.9-26c4.8-8.2,3.6,1.5,6.1,2.5c-3.6,8.7-7.3,17.3-6,17.8
						c1.2,0.5,3.6,1.5,4.9,2c3.6-8.7,10.9-26,14.5-34.6c-3.6,8.7-7.3,17.3-6.1,17.8c1.2,0.5,3.6,1.5,4.9,2
						c-6.1,17.8-19.4,42.8-25.4,60.6l3.6,1.5c8.5-16.8,18.2-43.3,25.4-60.6c-2.4,9.2-1.2,9.7,1.2,10.7
						c-9.7,26.5-24.2,50.9-31.5,78.4c3.6-8.7,7.3-17.3,10.9-26C545.6,167.8,522.6,209,512.9,235.5z"/>
				</g>
			</g>
		</g>
	</g>
	<g id="Layer_3_1_">
		<g>
			<g>
				<g>
					<path d="M363.8,372.8c-11.8,5.7-23.7,12.3-34.3,20.2c-10.7,7.9-20.1,17.2-27.5,28.1c-7.4,10.8-12.6,23.2-15.5,36.4
						c-1.4,6.6-2.2,13.3-2.6,20c-0.1,3.4-0.2,6.7,0,10.1c0.1,1.7,0.1,3.3,0.2,5c0.2,1.7,0.3,3.3,0.4,4.9c0.9,7.9,2.2,15.7,3.9,23.2
						c1.8,7.5,4,14.8,6.7,21.8c5.4,13.9,13,26.3,22.7,36.8c9.7,10.5,21.6,19.3,35.1,26.1c6.7,3.4,13.8,6.5,21.2,9
						c7.3,2.6,14.9,4.7,22.6,6.5c-0.5,2.6-6.7,5.2-1.8,7.7c5.1,2.2,8.9,4,11.8,5.6c1.4,0.8,2.6,1.6,3.6,2.4c1,0.8,1.8,1.5,2.4,2.2
						c2.4,2.9,2.1,5.5,1.7,8.1c-0.2,1.3-4.5,0.7-8.1,0.1c-3.6-0.6-6.4-1.2-3.8,0.7c-8.6-1.6-20-4-27.1-5.5c-1.8-0.4-3.3-0.7-4.5-0.8
						c-1.2-0.2-2-0.2-2.3-0.1c-0.7,0.3,0.5,1.4,4.5,3.3c2.4,2.2,9.6,4.2,16.7,6c7.2,1.8,14.4,3.4,17.1,5.9c2.7,2.4,0.9,4.1-1,5.8
						c-1.8,1.7-3.7,3.4-1,5.8c1.5,0.2,3.5,0.5,5.6,0.9c2.1,0.3,4.4,0.6,6.7,0.9c4.6,0.6,9.3,1,12.3,1.3c3,1.6,1.3,3.4-0.4,4.9
						c-1.7,1.5-3.4,2.7-0.3,3c9.4,2.2,20.5,3,32.3,3c5.9,0,12.1-0.2,18.3-0.6c3.1-0.2,6.3-0.4,9.5-0.7c1.6-0.2,3.2-0.3,4.8-0.5
						l2.5-0.3l2.7-0.3c0.2,1.3,1.8,2.4,2,3.6c0.1,0.6-0.2,1.1-1.3,1.8c-0.9,0.4-1.8,0.7-2.9,1c-1.1,0.3-2.5,0.6-4.1,1
						c-7.2,0.7-14.3,1.2-21.4,1.4c-7.1,0.3-14.1,0.4-21.2,0.2c-14.2-0.2-28.4-1.2-42.7-3.1c-14.3-1.9-28.6-4.8-42.9-8.8
						c-14.3-4.1-28.5-9.5-42.3-16.5c-13.7-7.1-27.1-15.9-39.1-26.7c-6-5.4-11.7-11.2-16.9-17.5c-5.2-6.3-10-12.9-14.3-19.9
						c-4.2-7-8-14.2-11.2-21.6c-3.1-7.4-5.9-15-8-22.6c-4.4-15.2-6.7-30.7-7.8-45.8c-1-15.1-0.8-30.5,1.4-46.3l0.9-5.9l1.1-5.9
						c0.2-1,0.4-2,0.6-2.9l0.7-2.9c0.5-2,0.9-3.9,1.4-5.9c2.1-7.8,4.8-15.6,8-23.2c3.3-7.6,7.2-15,11.6-22.1
						c4.4-7.1,9.5-13.8,14.9-20.1c1.4-1.5,2.7-3.1,4.2-4.6l4.3-4.5l4.5-4.2c1.5-1.4,3.1-2.7,4.6-4.1c6.2-5.3,12.7-10.1,19.4-14.5
						c13.4-8.7,27.5-15.5,41.7-20.8c14.2-5.3,28.6-9.3,43-12.2c14.4-2.9,28.7-4.7,43-5.8c14.3-1,28.5-1.3,42.9-0.6
						c3.3,0.3,5.9,0.6,7.9,1c1,0.2,1.9,0.4,2.6,0.6c0.8,0.2,1.2,0.4,2,0.7c0.7,0.4,0.8,0.9,0.6,1.3c-0.1,0.2-0.3,0.4-0.7,0.6
						c-0.5,0.2-1.1,0.4-1.6,0.6c-4.7,1.6-14.3,3.5-23.8,5.6c6.4-1.3,6.3,2.6,12.7,1.4c-0.1,2-3.3,4.5-9.5,6.8
						c-6.2,2.3-15.4,4.4-27.5,6c6.1-0.5,12.2-0.8,18.3-0.9c6.1,1.2,0.1,3.9,0.2,6.6c-6,0.1-12,0.5-11.9,1.8c0.1,1.3,0.2,3.9,0.3,5.3
						c2.9-0.2,7.4-0.4,11.8-0.5c4.4-0.1,8.8-0.1,11.8-0.1c-5.9-0.1-11.8,0.1-11.8,1.4c0,1.3,0.1,3.9,0.1,5.3
						c-5.8,0.8-13,0.8-20.2,1.1c-7.2,0.3-14.5,0.8-20.1,2.3l0.6,3.9c5.7-0.2,12.8-1,19.9-1.8c7.1-0.8,14.2-1.4,20-1.6
						c-5.7,1.5-5.6,2.8-5.5,5.5c-8.4,1-16.9,1-25.3,1.7c-8.4,0.6-16.8,2-24.5,5.6c5.4-1.1,10.9-2.1,16.4-2.9c-5,4.1-14.4,5.9-24.4,8
						C381.6,366.9,371,369.3,363.8,372.8z"/>
				</g>
			</g>
		</g>
		<g>
			<g>
				<g>
					<path d="M764.4,650.2c-3.2,0-6.4,0-9.6,0c-14.6,0.1-29.1-0.1-43.8-0.9c-14.6-0.8-29.4-2.1-44.3-4.4c-14.9-2.3-30-5.6-45.2-10.4
						c-15.1-4.9-30.3-11.4-44.8-20.5c-10-6.5-19.9-14.1-29.1-22.8c-2.2-2.3-4.6-4.4-6.7-6.8c-1.1-1.2-2.2-2.3-3.2-3.5l-3.1-3.7
						l-1.5-1.9l-1.5-1.9l-2.9-3.9l-2.8-4c-0.9-1.3-1.8-2.7-2.7-4c-6.9-10.9-12.4-22.7-16.4-34.6c-4-11.9-6.5-23.9-7.9-35.5
						c1.3,13.8,4.3,27.7,9,41.3l0.9,2.6l1,2.5l2,5l2.3,5l1.2,2.5l1.3,2.4c0.9,1.6,1.7,3.2,2.6,4.8l2.8,4.7c0.9,1.6,2,3.1,3,4.6
						c1,1.5,2,3.1,3.1,4.5c4.3,6,9.1,11.6,14.2,16.9c5.1,5.3,10.7,10.1,16.4,14.6c5.8,4.5,11.8,8.5,18,12.3c6.2,3.7,12.6,7,19,10
						c6.5,3,13,5.6,19.7,8c6.6,2.4,13.3,4.4,20,6.3c13.4,3.7,26.8,6.4,40.2,8.5c26.8,4.2,53.3,5.9,79.4,6.2
						c-10.3,3.8-22.9,6.9-37.8,6.8c-17.9-0.7-35.7-2.4-53.5-5.4c-17.7-3-35.4-7.2-52.8-13.3c0.4-1.2,1.2-3.7,1.6-4.9
						c-12.3-3.7-24.4-8.4-35.9-14.6l-4.3-2.4l-4.2-2.5l-2.1-1.3l-2.1-1.4l-4.1-2.7l-4-2.9l-2-1.5l-1.9-1.6l-3.9-3.1
						c-1.3-1.1-2.5-2.2-3.7-3.3c-9.9-8.9-18.6-19.2-25.8-30.3c-7.2-11.1-12.8-23.2-16.9-35.4c-4.1-12.3-6.8-24.8-8.4-37.2
						c-1.6-12.5-2.2-24.8-2-37.2c0.2-12.5,1.2-25.1,3.5-37.9c2.3-12.8,5.7-25.7,10.7-38.4c-1.2,1.6-1.7,1.8-2,1.4
						c-0.3-0.4-0.5-1.3-0.7-1.8c0.1-0.2,0.2-0.5,0.3-0.7c-0.1,0.2-0.2,0.5-0.3,0.7c-0.2-0.5-0.4-0.7-1,0c-0.6,0.7-1.4,2.3-2.8,5.5
						c1.3-3.2,2.2-4.8,2.8-5.5c0.6-0.7,0.9-0.5,1,0c-5.5,12.4-9.4,25.3-11.9,38.1c-2.5,12.8-3.7,25.5-3.9,38
						c-0.2,12.5,0.5,24.8,2.2,37.2c1.7,12.4,4.5,25,8.7,37.2c4.2,12.3,9.9,24.3,17,35.5c7.2,11.2,15.8,21.6,25.4,30.8
						c9.7,9.1,20.4,17.1,31.6,23.8c11.3,6.7,23,12.3,35.1,16.9c-18.7-7-37.2-16.3-53.9-28.9c-8.3-6.3-16.2-13.4-23.3-21.2
						c-7.1-7.8-13.5-16.4-19-25.5c-5.5-9.1-10-18.6-13.6-28.3l-1.3-3.7c-0.4-1.2-0.9-2.4-1.2-3.7l-2.2-7.4l-1.9-7.4l-0.5-1.9
						l-0.4-1.9l-0.7-3.7c-1.9-9.9-3.2-19.8-3.7-29.7l-0.2-3.7c-0.1-1.2-0.1-2.5-0.1-3.7c-0.1-2.5-0.1-4.9-0.2-7.4
						c0.1-5,0.1-9.9,0.5-14.9c1.2-19.9,5.3-40.5,13.3-60c4-9.8,9-19.3,14.9-28.2c5.9-8.9,12.7-17.2,20.1-24.8
						c14.9-15.2,32.3-27.2,50.4-36.5c18.2-9.3,37.2-16.1,56.4-21c3.3-0.8,8.2-2,13.1-3.1c2.5-0.5,4.9-1,7.2-1.5
						c2.3-0.4,4.3-0.8,6-1.1c13.5-0.4,26.7-0.7,39.8-0.9c13.1-0.2,26.1-0.3,39.3-0.1c-3.3,3.2,1.5,8.2,0.6,11.9
						c-0.4,1.9-2.2,3.4-7.1,4.4c-4.8,1-12.6,1.3-25.2,1.4c0.1,1.3,0.2,3.9,0.3,5.2c12.5,0.9,22.9,3.1,30.7,5.9
						c3.9,1.4,7.1,3,9.6,4.6c1.2,0.8,2.3,1.6,3.1,2.4c0.8,0.8,1.5,1.6,1.9,2.4c2.1,3.2,0.8,6-3,8.4c-4.1,2.3-11.7,4.1-23.1,5.6
						c-12.9,1.5-26.8,3.1-41.2,5.2c-14.4,2.1-29.3,4.9-43.9,8.9c-14.6,4-29,9.2-41.9,16.2c-12.9,7-24.3,15.7-32.9,25.8
						c-3.2,3.6-6,7.5-8.7,11.4l-1.9,3c-0.6,1-1.2,2.1-1.8,3.1c-1.2,2-2.2,4.2-3.3,6.3c-4.1,8.5-7.2,17.6-9.3,27.2
						c-2.1,9.6-3.2,19.7-3.6,30.1c0,1.3-0.2,2.6-0.1,3.9l0,4c0,1.3-0.1,2.7,0,4l0.1,3.9c0,2.7,0.2,5.2,0.3,7.8
						c0.1,2.6,0.4,5.2,0.6,7.7c0.7,7,1.8,14,3.7,20.7c1.9,6.7,4.3,13.2,7.4,19.4c6.2,12.4,14.9,23.4,25.9,32.7
						c11,9.3,24.1,16.9,38.2,23c14.1,6.1,29.3,10.7,44.6,14.5c5.6,1.2,12.4,2.1,19.6,2.7c7.2,0.6,14.8,0.8,22.1,0.9
						c14.5,0.2,27.7-0.3,33.6,1.3c8.5,1.4,9.1,4.1,8,7.3c-19.6,1.1-39.3,1-58.6-0.7c-19.3-1.7-38.3-4.9-56.3-10.4
						c-21.9-7-42.4-17.3-58.4-31.8c-16.1-14.4-27.6-32.6-33.3-53c5.1,20.1,16.2,38.6,32.3,53.1c4.1,3.6,8.4,7,12.9,10.1
						c4.6,3.1,9.4,6,14.4,8.6c5,2.6,10.2,5.1,15.6,7.2c5.4,2.1,10.8,4.1,16.5,5.8c17.8,5.8,36.7,9.3,55.8,11.5
						c19.1,2.1,38.6,2.7,58,2.2c-1.2,2.7-2.5,5.6,0.1,8c0,0,3.1-0.2,6.9-0.5c3.8-0.3,8.4-0.7,11.4-1.1c12.5,1.9,17.7,4.9,18.5,8.7
						c0.6,3.9-3.7,8.6-9.7,12.6C771.9,646.4,768.4,648.3,764.4,650.2z"/>
				</g>
			</g>
		</g>
	</g>
	<g>
		<g>
			<g>
				<g>
					<path class="st2" d="M258.7,507.8c0.1-1.2-3.2-2.2,1.8-3c15.8-1.7,28.6,1.7,44.4-0.1c0.3-0.6,0.7-1.3,1.1-1.9
						c12.3,0.3,25.1,0.8,38.1,1.2c24-1.2,47.8-2.7,71.5-4.3c-0.6-0.7-1-1.3,1.4-1.6c9.9-0.9,23.6-0.8,37.7-1.2
						c2.1-0.2,4.2-0.4,6.2-0.6c1.6-0.5,2-1.2,2.2-1.6c6.4-0.2,12.1-0.2,17.4-0.3c69.4-6.5,139.9-13.8,216.3-21.2
						c16.1-2.4,32.3-4.8,47.8-6.2c23.1-1.7,52.6-1.6,75.2-2.3c-3.7-6.5,51.1-12,39.8-18.3c15-0.5,37.6-1.2,38.7-3.1
						c3.3-5.8,14.6-12.8,54.3-17.8c15.6-1.4,39.7,0,45.1-1.4c8.6-2.2-20.4-3.2-11.8-5.3c-116.1,2.6-227.8,9.6-344.7,14.3
						c-39.7,4.6-307.9,16.7-376.9,18.2c-2.1,0.1-4.2,0.2-6.3,0.3c-37.6,1.2-83.2,3.5-115,7.3c-14.5,2.2-29.3,4.7-44,7.1
						c6.9,0.8,13.3,1.7,18.9,2.5c-15,0.5-30.1,0.9-35.8,2.4c-31.9,4.2-13.6,6.8-1.1,10.8c8.9,1.6-2.9,5.2,11,6.6
						c-10,0.3-15,0.5-25.1,0.8c-1.1,1.9,30.8-2.2,24,1.2c-9.7-0.3-20.4,1.3-30.4,1.6c3.6,2.4,34.7-0.4,33.3,2.1
						c-5.4,0.8-28.3-2.3-30.1,0.9c-0.4,0.6,9.7,0.3,14.7,0.2c-30.8,2.2-47.7,5.9-19.4,8.2c-9.8,0.3-23.6-0.5-34,0.4c0,0,0.1,0,0.1,0
						c5.2-0.1,14.1,0.2,18.8,0c-5.9,0.2-11.7,0.4-17.6,0.5c0.9,0.4,2,0.8,3.1,1.2c4.4,0.2,8.8,0.3,13.4,0.2
						c-3.9,0.1-7.8,0.2-11.7,0.4c3,0.9,6.4,1.8,10.1,2.5c14,1.5,27.4,3.9,34.9,3.7C137.2,511.4,198.1,510,258.7,507.8z"/>
				</g>
			</g>
		</g>
	</g>
	<g id="Layer_1_copy_1_">
		<g>
			<g>
				<g>
					<path class="st2" d="M258.7,507.8c0.1-1.2-3.2-2.2,1.8-3c15.8-1.7,28.6,1.7,44.4-0.1c0.3-0.6,0.7-1.3,1.1-1.9
						c12.3,0.3,25.1,0.8,38.1,1.2c24-1.2,47.8-2.7,71.5-4.3c-0.6-0.7-1-1.3,1.4-1.6c9.9-0.9,23.6-0.8,37.7-1.2
						c2.1-0.2,4.2-0.4,6.2-0.6c1.6-0.5,2-1.2,2.2-1.6c6.4-0.2,12.1-0.2,17.4-0.3c69.4-6.5,139.9-13.8,216.3-21.2
						c16.1-2.4,32.3-4.8,47.8-6.2c23.1-1.7,52.6-1.6,75.2-2.3c-3.7-6.5,51.1-12,39.8-18.3c15-0.5,37.6-1.2,38.7-3.1
						c3.3-5.8,14.6-12.8,54.3-17.8c15.6-1.4,39.7,0,45.1-1.4c8.6-2.2-20.4-3.2-11.8-5.3c-116.1,2.6-227.8,9.6-344.7,14.3
						c-39.7,4.6-307.9,16.7-376.9,18.2c-2.1,0.1-4.2,0.2-6.3,0.3c-37.6,1.2-83.2,3.5-115,7.3c-14.5,2.2-29.3,4.7-44,7.1
						c6.9,0.8,13.3,1.7,18.9,2.5c-15,0.5-30.1,0.9-35.8,2.4c-31.9,4.2-13.6,6.8-1.1,10.8c8.9,1.6-2.9,5.2,11,6.6
						c-10,0.3-15,0.5-25.1,0.8c-1.1,1.9,30.8-2.2,24,1.2c-9.7-0.3-20.4,1.3-30.4,1.6c3.6,2.4,34.7-0.4,33.3,2.1
						c-5.4,0.8-28.3-2.3-30.1,0.9c-0.4,0.6,9.7,0.3,14.7,0.2c-30.8,2.2-47.7,5.9-19.4,8.2c-9.8,0.3-23.6-0.5-34,0.4c0,0,0.1,0,0.1,0
						c5.2-0.1,14.1,0.2,18.8,0c-5.9,0.2-11.7,0.4-17.6,0.5c0.9,0.4,2,0.8,3.1,1.2c4.4,0.2,8.8,0.3,13.4,0.2
						c-3.9,0.1-7.8,0.2-11.7,0.4c3,0.9,6.4,1.8,10.1,2.5c14,1.5,27.4,3.9,34.9,3.7C137.2,511.4,198.1,510,258.7,507.8z"/>
				</g>
			</g>
		</g>
	</g>
	<g id="Layer_3_copy_1_">
		<g class="st3">
			<g>
				<g>
					<path d="M363.8,372.8c-11.8,5.7-23.7,12.3-34.3,20.2c-10.7,7.9-20.1,17.2-27.5,28.1c-7.4,10.8-12.6,23.2-15.5,36.4
						c-1.4,6.6-2.2,13.3-2.6,20c-0.1,3.4-0.2,6.7,0,10.1c0.1,1.7,0.1,3.3,0.2,5c0.2,1.7,0.3,3.3,0.4,4.9c0.9,7.9,2.2,15.7,3.9,23.2
						c1.8,7.5,4,14.8,6.7,21.8c5.4,13.9,13,26.3,22.7,36.8c9.7,10.5,21.6,19.3,35.1,26.1c6.7,3.4,13.8,6.5,21.2,9
						c7.3,2.6,14.9,4.7,22.6,6.5c-0.5,2.6-6.7,5.2-1.8,7.7c5.1,2.2,8.9,4,11.8,5.6c1.4,0.8,2.6,1.6,3.6,2.4c1,0.8,1.8,1.5,2.4,2.2
						c2.4,2.9,2.1,5.5,1.7,8.1c-0.2,1.3-4.5,0.7-8.1,0.1c-3.6-0.6-6.4-1.2-3.8,0.7c-8.6-1.6-20-4-27.1-5.5c-1.8-0.4-3.3-0.7-4.5-0.8
						c-1.2-0.2-2-0.2-2.3-0.1c-0.7,0.3,0.5,1.4,4.5,3.3c2.4,2.2,9.6,4.2,16.7,6c7.2,1.8,14.4,3.4,17.1,5.9c2.7,2.4,0.9,4.1-1,5.8
						c-1.8,1.7-3.7,3.4-1,5.8c1.5,0.2,3.5,0.5,5.6,0.9c2.1,0.3,4.4,0.6,6.7,0.9c4.6,0.6,9.3,1,12.3,1.3c3,1.6,1.3,3.4-0.4,4.9
						c-1.7,1.5-3.4,2.7-0.3,3c9.4,2.2,20.5,3,32.3,3c5.9,0,12.1-0.2,18.3-0.6c3.1-0.2,6.3-0.4,9.5-0.7c1.6-0.2,3.2-0.3,4.8-0.5
						l2.5-0.3l2.7-0.3c0.2,1.3,1.8,2.4,2,3.6c0.1,0.6-0.2,1.1-1.3,1.8c-0.9,0.4-1.8,0.7-2.9,1c-1.1,0.3-2.5,0.6-4.1,1
						c-7.2,0.7-14.3,1.2-21.4,1.4c-7.1,0.3-14.1,0.4-21.2,0.2c-14.2-0.2-28.4-1.2-42.7-3.1c-14.3-1.9-28.6-4.8-42.9-8.8
						c-14.3-4.1-28.5-9.5-42.3-16.5c-13.7-7.1-27.1-15.9-39.1-26.7c-6-5.4-11.7-11.2-16.9-17.5c-5.2-6.3-10-12.9-14.3-19.9
						c-4.2-7-8-14.2-11.2-21.6c-3.1-7.4-5.9-15-8-22.6c-4.4-15.2-6.7-30.7-7.8-45.8c-1-15.1-0.8-30.5,1.4-46.3l0.9-5.9l1.1-5.9
						c0.2-1,0.4-2,0.6-2.9l0.7-2.9c0.5-2,0.9-3.9,1.4-5.9c2.1-7.8,4.8-15.6,8-23.2c3.3-7.6,7.2-15,11.6-22.1
						c4.4-7.1,9.5-13.8,14.9-20.1c1.4-1.5,2.7-3.1,4.2-4.6l4.3-4.5l4.5-4.2c1.5-1.4,3.1-2.7,4.6-4.1c6.2-5.3,12.7-10.1,19.4-14.5
						c13.4-8.7,27.5-15.5,41.7-20.8c14.2-5.3,28.6-9.3,43-12.2c14.4-2.9,28.7-4.7,43-5.8c14.3-1,28.5-1.3,42.9-0.6
						c3.3,0.3,5.9,0.6,7.9,1c1,0.2,1.9,0.4,2.6,0.6c0.8,0.2,1.2,0.4,2,0.7c0.7,0.4,0.8,0.9,0.6,1.3c-0.1,0.2-0.3,0.4-0.7,0.6
						c-0.5,0.2-1.1,0.4-1.6,0.6c-4.7,1.6-14.3,3.5-23.8,5.6c6.4-1.3,6.3,2.6,12.7,1.4c-0.1,2-3.3,4.5-9.5,6.8
						c-6.2,2.3-15.4,4.4-27.5,6c6.1-0.5,12.2-0.8,18.3-0.9c6.1,1.2,0.1,3.9,0.2,6.6c-6,0.1-12,0.5-11.9,1.8c0.1,1.3,0.2,3.9,0.3,5.3
						c2.9-0.2,7.4-0.4,11.8-0.5c4.4-0.1,8.8-0.1,11.8-0.1c-5.9-0.1-11.8,0.1-11.8,1.4c0,1.3,0.1,3.9,0.1,5.3
						c-5.8,0.8-13,0.8-20.2,1.1c-7.2,0.3-14.5,0.8-20.1,2.3l0.6,3.9c5.7-0.2,12.8-1,19.9-1.8c7.1-0.8,14.2-1.4,20-1.6
						c-5.7,1.5-5.6,2.8-5.5,5.5c-8.4,1-16.9,1-25.3,1.7c-8.4,0.6-16.8,2-24.5,5.6c5.4-1.1,10.9-2.1,16.4-2.9c-5,4.1-14.4,5.9-24.4,8
						C381.6,366.9,371,369.3,363.8,372.8z"/>
				</g>
			</g>
		</g>
		<g class="st3">
			<g>
				<g>
					<path d="M764.4,650.2c-3.2,0-6.4,0-9.6,0c-14.6,0.1-29.1-0.1-43.8-0.9c-14.6-0.8-29.4-2.1-44.3-4.4c-14.9-2.3-30-5.6-45.2-10.4
						c-15.1-4.9-30.3-11.4-44.8-20.5c-10-6.5-19.9-14.1-29.1-22.8c-2.2-2.3-4.6-4.4-6.7-6.8c-1.1-1.2-2.2-2.3-3.2-3.5l-3.1-3.7
						l-1.5-1.9l-1.5-1.9l-2.9-3.9l-2.8-4c-0.9-1.3-1.8-2.7-2.7-4c-6.9-10.9-12.4-22.7-16.4-34.6c-4-11.9-6.5-23.9-7.9-35.5
						c1.3,13.8,4.3,27.7,9,41.3l0.9,2.6l1,2.5l2,5l2.3,5l1.2,2.5l1.3,2.4c0.9,1.6,1.7,3.2,2.6,4.8l2.8,4.7c0.9,1.6,2,3.1,3,4.6
						c1,1.5,2,3.1,3.1,4.5c4.3,6,9.1,11.6,14.2,16.9c5.1,5.3,10.7,10.1,16.4,14.6c5.8,4.5,11.8,8.5,18,12.3c6.2,3.7,12.6,7,19,10
						c6.5,3,13,5.6,19.7,8c6.6,2.4,13.3,4.4,20,6.3c13.4,3.7,26.8,6.4,40.2,8.5c26.8,4.2,53.3,5.9,79.4,6.2
						c-10.3,3.8-22.9,6.9-37.8,6.8c-17.9-0.7-35.7-2.4-53.5-5.4c-17.7-3-35.4-7.2-52.8-13.3c0.4-1.2,1.2-3.7,1.6-4.9
						c-12.3-3.7-24.4-8.4-35.9-14.6l-4.3-2.4l-4.2-2.5l-2.1-1.3l-2.1-1.4l-4.1-2.7l-4-2.9l-2-1.5l-1.9-1.6l-3.9-3.1
						c-1.3-1.1-2.5-2.2-3.7-3.3c-9.9-8.9-18.6-19.2-25.8-30.3c-7.2-11.1-12.8-23.2-16.9-35.4c-4.1-12.3-6.8-24.8-8.4-37.2
						c-1.6-12.5-2.2-24.8-2-37.2c0.2-12.5,1.2-25.1,3.5-37.9c2.3-12.8,5.7-25.7,10.7-38.4c-1.2,1.6-1.7,1.8-2,1.4
						c-0.3-0.4-0.5-1.3-0.7-1.8c0.1-0.2,0.2-0.5,0.3-0.7c-0.1,0.2-0.2,0.5-0.3,0.7c-0.2-0.5-0.4-0.7-1,0c-0.6,0.7-1.4,2.3-2.8,5.5
						c1.3-3.2,2.2-4.8,2.8-5.5c0.6-0.7,0.9-0.5,1,0c-5.5,12.4-9.4,25.3-11.9,38.1c-2.5,12.8-3.7,25.5-3.9,38
						c-0.2,12.5,0.5,24.8,2.2,37.2c1.7,12.4,4.5,25,8.7,37.2c4.2,12.3,9.9,24.3,17,35.5c7.2,11.2,15.8,21.6,25.4,30.8
						c9.7,9.1,20.4,17.1,31.6,23.8c11.3,6.7,23,12.3,35.1,16.9c-18.7-7-37.2-16.3-53.9-28.9c-8.3-6.3-16.2-13.4-23.3-21.2
						c-7.1-7.8-13.5-16.4-19-25.5c-5.5-9.1-10-18.6-13.6-28.3l-1.3-3.7c-0.4-1.2-0.9-2.4-1.2-3.7l-2.2-7.4l-1.9-7.4l-0.5-1.9
						l-0.4-1.9l-0.7-3.7c-1.9-9.9-3.2-19.8-3.7-29.7l-0.2-3.7c-0.1-1.2-0.1-2.5-0.1-3.7c-0.1-2.5-0.1-4.9-0.2-7.4
						c0.1-5,0.1-9.9,0.5-14.9c1.2-19.9,5.3-40.5,13.3-60c4-9.8,9-19.3,14.9-28.2c5.9-8.9,12.7-17.2,20.1-24.8
						c14.9-15.2,32.3-27.2,50.4-36.5c18.2-9.3,37.2-16.1,56.4-21c3.3-0.8,8.2-2,13.1-3.1c2.5-0.5,4.9-1,7.2-1.5
						c2.3-0.4,4.3-0.8,6-1.1c13.5-0.4,26.7-0.7,39.8-0.9c13.1-0.2,26.1-0.3,39.3-0.1c-3.3,3.2,1.5,8.2,0.6,11.9
						c-0.4,1.9-2.2,3.4-7.1,4.4c-4.8,1-12.6,1.3-25.2,1.4c0.1,1.3,0.2,3.9,0.3,5.2c12.5,0.9,22.9,3.1,30.7,5.9
						c3.9,1.4,7.1,3,9.6,4.6c1.2,0.8,2.3,1.6,3.1,2.4c0.8,0.8,1.5,1.6,1.9,2.4c2.1,3.2,0.8,6-3,8.4c-4.1,2.3-11.7,4.1-23.1,5.6
						c-12.9,1.5-26.8,3.1-41.2,5.2c-14.4,2.1-29.3,4.9-43.9,8.9c-14.6,4-29,9.2-41.9,16.2c-12.9,7-24.3,15.7-32.9,25.8
						c-3.2,3.6-6,7.5-8.7,11.4l-1.9,3c-0.6,1-1.2,2.1-1.8,3.1c-1.2,2-2.2,4.2-3.3,6.3c-4.1,8.5-7.2,17.6-9.3,27.2
						c-2.1,9.6-3.2,19.7-3.6,30.1c0,1.3-0.2,2.6-0.1,3.9l0,4c0,1.3-0.1,2.7,0,4l0.1,3.9c0,2.7,0.2,5.2,0.3,7.8
						c0.1,2.6,0.4,5.2,0.6,7.7c0.7,7,1.8,14,3.7,20.7c1.9,6.7,4.3,13.2,7.4,19.4c6.2,12.4,14.9,23.4,25.9,32.7
						c11,9.3,24.1,16.9,38.2,23c14.1,6.1,29.3,10.7,44.6,14.5c5.6,1.2,12.4,2.1,19.6,2.7c7.2,0.6,14.8,0.8,22.1,0.9
						c14.5,0.2,27.7-0.3,33.6,1.3c8.5,1.4,9.1,4.1,8,7.3c-19.6,1.1-39.3,1-58.6-0.7c-19.3-1.7-38.3-4.9-56.3-10.4
						c-21.9-7-42.4-17.3-58.4-31.8c-16.1-14.4-27.6-32.6-33.3-53c5.1,20.1,16.2,38.6,32.3,53.1c4.1,3.6,8.4,7,12.9,10.1
						c4.6,3.1,9.4,6,14.4,8.6c5,2.6,10.2,5.1,15.6,7.2c5.4,2.1,10.8,4.1,16.5,5.8c17.8,5.8,36.7,9.3,55.8,11.5
						c19.1,2.1,38.6,2.7,58,2.2c-1.2,2.7-2.5,5.6,0.1,8c0,0,3.1-0.2,6.9-0.5c3.8-0.3,8.4-0.7,11.4-1.1c12.5,1.9,17.7,4.9,18.5,8.7
						c0.6,3.9-3.7,8.6-9.7,12.6C771.9,646.4,768.4,648.3,764.4,650.2z"/>
				</g>
			</g>
		</g>
	</g>
</g>
</svg>
