<?xml version="1.0" encoding="utf-8"?>
<!-- Generator: Adobe Illustrator 23.0.1, SVG Export Plug-In . SVG Version: 6.00 Build 0)  -->
<!DOCTYPE svg PUBLIC "-//W3C//DTD SVG 1.1//EN" "http://www.w3.org/Graphics/SVG/1.1/DTD/svg11.dtd" [
	<!ENTITY st0 "fill:#ED2024;">
	<!ENTITY st1 "fill:#EF3C40;">
	<!ENTITY st2 "opacity:0.42;">
]>
<svg version="1.1" xmlns="http://www.w3.org/2000/svg" xmlns:xlink="http://www.w3.org/1999/xlink" x="0px" y="0px"
	 viewBox="0 0 1024 1024" style="enable-background:new 0 0 1024 1024;" xml:space="preserve">
<g id="Layer_2">
	<g>
		<g>
			<g>
				<path style="&st0;" d="M579.7812,198.8329c32.0954,79.164,64.1815,178.4393,96.2982,258.4644
					c38.8797,95.8978,77.3073,201.1495,112.7776,298.3021c-1.7053,0.6226-7.22-6.541-5.1178,1.8685
					c9.2648,33.315,5.8513,34.5612,2.4398,35.8068c-1.7062,0.6229-8.866-24.2837-7.619-15.5721
					c-8.866-24.2837-24.5077-64.4777-17.3363-39.545c1.2493,8.7208,14.7788,40.4787,15.1735,49.5014
					c0.3994,9.0412-8.0719-6.2198-7.6754,2.8023c2.9597,8.1064,8.8725,24.3015,11.8289,32.3991
					c1.2417,8.7053-8.077-6.2281-5.1206,1.8695c7.1604,24.9083,19.8401,56.9867,31.656,89.3501
					c-1.7062,0.6229-0.4486,9.3609-7.2155-6.5224C694.7065,624.8095,584.8813,334.5943,483.9869,50.2974
					c-10.9712-32.692,1.3096-9.6449,12.735,13.7043c-3.8073-7.7768-1.247-8.7115-5.0607-16.5062
					c2.5594-0.9344,12.7361,13.7039,25.4158,45.7822c-2.9564-8.0975-5.9096-16.1861-8.8692-24.2926
					c-2.1043-8.4086,2.5584-0.9341,4.2637-1.5567c2.9597,8.1065,5.9128,16.1951,6.7678,15.8829
					c0.8513-0.3108,2.5584-0.934,3.4106-1.2452c-2.9531-8.0886-8.8693-24.2926-11.8224-32.3812
					c2.9531,8.0886,5.9096,16.1862,6.7617,15.875c0.8532-0.3114,2.5594-0.9344,3.4144-1.2466
					c6.7641,15.8843,13.9238,40.7909,20.6949,56.6827l2.5566-0.9334c-5.062-16.5157-14.782-40.4876-20.695-56.6826
					c3.8138,7.7946,4.666,7.4834,6.3731,6.8602c9.7191,23.9721,16.0281,49.1995,27.4517,72.5413
					c-2.9537-8.0904-5.9102-16.188-8.8633-24.2766C558.696,133.134,570.0588,174.8518,579.7812,198.8329z"/>
			</g>
		</g>
	</g>
	<g>
		<g>
			<g>
				<path style="&st0;" d="M512.0302,225.6814c-33.0885,90.5076-83.9687,196.6482-117.7942,287.8448
					C354.153,623.1655,305.28,739.672,260.1678,847.2131c-2.5111-1.0533-2.5184-11.597-7.5361-3.1613
					c-18.8022,34.2639-23.8286,32.1554-28.8522,30.0481c-2.5125-1.054,11.276-26.8804,5.0076-18.9808
					c11.276-26.8804,28.8282-72.2441,15.0301-46.387c-6.2739,7.9089-18.7961,44.8072-26.3193,52.1804
					c-7.5343,7.3918-3.7816-12.1154-11.3024-4.7411c-3.7641,8.9733-11.2842,26.9001-15.0442,35.8635
					c-6.269,7.8901-3.7802-12.1264-7.5403-3.163c-13.7893,25.8282-27.5718,62.2095-42.5995,98.0334
					c-2.5125-1.0539-8.7919,6.8759-2.5295-11.5785C267.5522,660.6015,397.8653,335.8662,533.2141,23.7863
					c16.2894-35.3179,10.0329-6.3204,2.5257,22.1409c2.4982-9.4811,6.2684-7.8996,8.7749-17.4004
					c3.7687,1.5809,2.5274,22.1416-11.2551,58.5228c3.7601-8.9634,7.5159-17.917,11.2801-26.8902
					c5.0149-8.437,3.7674,1.5803,6.2785,2.6337c-3.7642,8.9733-7.5201,17.9268-6.2611,18.455
					c1.2535,0.5258,3.7674,1.5803,5.0222,2.1067c3.7559-8.9535,11.2801-26.8902,15.0361-35.8438
					c-3.756,8.9536-7.516,17.917-6.2612,18.4434c1.2563,0.527,3.7688,1.5809,5.0278,2.1091
					c-6.2667,18.4526-20.055,44.279-26.3203,62.7438l3.7646,1.5792c8.7818-17.4091,18.8-44.817,26.3202-62.7438
					c-2.5065,9.5008-1.2516,10.0272,1.2622,11.0817c-10.0197,27.4074-25.0699,52.7161-32.5725,81.1701
					c3.7568-8.9556,7.5168-17.919,11.2727-26.8725C545.8732,155.5734,522.0541,198.2641,512.0302,225.6814z"/>
			</g>
		</g>
	</g>
</g>
<g id="Layer_3">
	<g>
		<g>
			<g>
				<path d="M357.745,367.7361c-12.2578,5.9428-24.4757,12.692-35.513,20.891c-11.0438,8.1802-20.8492,17.8313-28.4665,29.0809
					c-7.6324,11.2203-13.0911,24.058-16.0534,37.6522c-1.4576,6.8017-2.323,13.7536-2.7033,20.6832
					c-0.0562,3.5038-0.2282,6.934-0.0352,10.4081c0.0777,1.7314,0.0824,3.4326,0.2352,5.1535
					c0.1557,1.7169,0.3104,3.4234,0.4642,5.1188c0.9702,8.1291,2.2549,16.2207,4.0337,24.0324
					c1.8295,7.7981,4.1083,15.3555,6.9245,22.5411c5.6226,14.3901,13.4149,27.1995,23.4464,38.0938
					c10.0875,10.8383,22.3495,19.9459,36.3419,27.0557c6.9745,3.5684,14.3159,6.6846,21.8959,9.3641
					c7.5999,2.6495,15.4264,4.8709,23.3589,6.7033c-0.5672,2.6632-6.9598,5.3555-1.8313,7.9645
					c5.2457,2.2447,9.2301,4.1312,12.1987,5.8465c1.4873,0.8496,2.7156,1.6753,3.7285,2.4711
					c1.0181,0.7781,1.8175,1.5365,2.44,2.2786c2.4942,2.975,2.1371,5.6589,1.7447,8.3566
					c-0.1893,1.3496-4.6563,0.7083-8.3504,0.0583c-3.6995-0.6136-6.6413-1.2298-3.9447,0.6897
					c-8.8957-1.612-20.6661-4.0887-28.0467-5.6797c-1.8449-0.3945-3.4307-0.6855-4.6438-0.8387
					c-1.2078-0.1669-2.0367-0.213-2.3868-0.058c-0.6907,0.2865,0.5219,1.3997,4.6996,3.3801
					c2.5001,2.2353,9.8882,4.3591,17.3303,6.2256c7.4393,1.9087,14.9382,3.5381,17.6634,6.0701
					c2.7428,2.4927,0.9134,4.2783-0.9841,6.0509c-1.8807,1.7481-3.8315,3.4837-0.9936,6.045
					c1.5931,0.2458,3.5836,0.553,5.7728,0.8909c2.1925,0.2906,4.5817,0.6468,6.9752,0.9296
					c4.7853,0.594,9.5762,1.076,12.7717,1.3418c3.0739,1.6399,1.3234,3.5381-0.4479,5.0921
					c-1.7652,1.5542-3.5306,2.7658-0.2608,3.0539c9.6853,2.2326,21.1834,3.1351,33.479,3.1462
					c6.1514-0.0003,12.5038-0.2238,18.9759-0.6226c3.2371-0.2002,6.5052-0.448,9.811-0.7347
					c1.6653-0.1563,3.3339-0.3129,5.0039-0.4697l2.5622-0.2699l2.8454-0.3351c0.1788,1.3505,1.895,2.497,2.0549,3.6781
					c0.0799,0.5905-0.2293,1.1897-1.3143,1.8273c-0.9115,0.3631-1.8267,0.7015-2.9633,1.0339
					c-1.1557,0.3359-2.5495,0.6662-4.2567,0.9909c-7.484,0.7441-14.7717,1.2141-22.1006,1.4988
					c-7.3173,0.2736-14.631,0.3723-21.9615,0.2535c-14.6578-0.2349-29.3863-1.2417-44.1783-3.1972
					c-14.7879-1.9618-29.6423-4.9219-44.433-9.1356c-14.7825-4.2267-29.5041-9.8265-43.7834-17.121
					c-14.2268-7.3859-28.0676-16.4424-40.4822-27.655c-6.1953-5.5919-12.144-11.5747-17.5079-18.1
					c-5.3777-6.502-10.3579-13.3686-14.7559-20.5755c-4.3396-7.2283-8.2633-14.697-11.55-22.3732
					c-3.2254-7.679-6.1247-15.4904-8.2863-23.3849c-4.5761-15.7816-6.9574-31.731-8.0395-47.4173
					c-1.0322-15.6456-0.869-31.5968,1.3972-47.8692l0.8824-6.0904l1.1467-6.1037c0.2004-1.017,0.3751-2.0334,0.6006-3.0501
					l0.719-3.0497c0.4954-2.0318,0.9422-4.0658,1.4953-6.0923c2.199-8.1129,4.9838-16.1563,8.2985-24.0464
					c3.4312-7.8559,7.4219-15.5206,11.9817-22.861c4.5775-7.3326,9.7905-14.2595,15.4088-20.7636
					c1.4323-1.5975,2.8105-3.2593,4.305-4.7875l4.4631-4.6119l4.6322-4.3957c1.5438-1.4677,3.1711-2.8085,4.7601-4.2102
					c6.4269-5.491,13.1603-10.4824,20.0844-14.9924c13.8812-8.9579,28.4578-15.993,43.1808-21.5356
					c14.7388-5.5072,29.6342-9.5892,44.5006-12.5985c14.872-2.9808,29.7199-4.91,44.5139-5.9944
					c14.8168-1.0703,29.4964-1.3179,44.4382-0.6703c3.4244,0.2661,6.1294,0.625,8.2141,1.0276
					c1.0394,0.2011,1.9367,0.4159,2.6818,0.6351c0.8024,0.2261,1.2782,0.4407,2.0369,0.6976
					c0.6886,0.4449,0.8678,0.8878,0.6227,1.3254c-0.1225,0.2188-0.3511,0.4363-0.675,0.6521
					c-0.4834,0.2016-1.1353,0.401-1.7015,0.6175c-4.8314,1.6803-14.8273,3.6592-24.6764,5.8162
					c6.5845-1.3881,6.541,2.6976,13.1553,1.4784c-0.0575,2.0534-3.4416,4.6371-9.8668,7.0186
					c-6.4392,2.3855-15.9031,4.5744-28.4748,6.1951c6.3158-0.4782,12.6332-0.798,18.9712-0.9662
					c6.3511,1.2302,0.0793,4.0825,0.1748,6.8063c-6.2253,0.1513-12.4316,0.5302-12.3472,1.8885
					c0.0799,1.3569,0.2402,4.0783,0.3202,5.4368c3.0451-0.1688,7.62-0.404,12.1985-0.516
					c4.5782-0.1193,9.1564-0.1334,12.2019-0.1031c-6.0924-0.0717-12.2036,0.1081-12.1636,1.4634
					c0.0349,1.3618,0.1049,4.0855,0.14,5.4504c-5.9692,0.8359-13.4457,0.8565-20.9393,1.1454
					c-7.4853,0.2888-14.9837,0.8461-20.7997,2.3935l0.5909,4.0394c5.9339-0.1852,13.2414-1.0619,20.5937-1.853
					c7.3481-0.7898,14.7354-1.4895,20.6592-1.6443c-5.8893,1.5356-5.8085,2.9431-5.698,5.6524
					c-8.7058,1.0503-17.4588,1.0586-26.1728,1.7554c-8.6995,0.67-17.3627,2.0866-25.375,5.8066
					c5.5986-1.1698,11.2757-2.1373,16.9791-2.9759c-5.2141,4.2057-14.9168,6.1353-25.2329,8.3156
					C376.1414,361.6653,365.1658,364.0773,357.745,367.7361z"/>
			</g>
		</g>
	</g>
	<g>
		<g>
			<g>
				<path d="M772.3564,654.7886c-3.3164,0.0288-6.6279,0.0352-9.8994,0.0081c-15.123,0.1238-30.1613-0.1235-45.3236-0.9152
					c-15.1571-0.8123-30.4331-2.1991-45.8922-4.545c-15.4507-2.3782-31.0984-5.7565-46.7762-10.7749
					c-15.6434-5.0873-31.3655-11.8145-46.3156-21.173c-10.3286-6.7549-20.5983-14.5584-30.0982-23.6294
					c-2.3135-2.3375-4.7277-4.5798-6.9289-7.0658c-1.1184-1.223-2.2583-2.4281-3.3615-3.6705l-3.2146-3.8243l-1.6033-1.9195
					l-1.5203-1.9912l-3.039-3.9891l-2.8531-4.1293c-0.9526-1.3762-1.909-2.7504-2.7622-4.1893
					c-7.1492-11.3124-12.8796-23.4609-17.0236-35.7739c-4.1169-12.3249-6.7431-24.7555-8.2187-36.7458
					c1.3596,14.2503,4.4338,28.6733,9.3252,42.7405l0.9069,2.6416l1.0349,2.607l2.0936,5.214l2.359,5.1275l1.1922,2.5622
					l1.3182,2.5092c0.8867,1.6695,1.757,3.3497,2.6694,5.009l2.9181,4.8873c0.9459,1.6476,2.0238,3.2146,3.0838,4.7945
					c1.0816,1.5641,2.0767,3.1933,3.2411,4.7007c4.4434,6.1964,9.4417,11.9809,14.7103,17.4826
					c5.3233,5.4528,11.0471,10.4629,16.9905,15.1433c5.9758,4.6369,12.2365,8.8135,18.6364,12.6804
					c6.4179,3.835,13.0249,7.2208,19.7074,10.3473c6.6929,3.1027,13.4993,5.7946,20.3407,8.2787
					c6.8475,2.465,13.7543,4.5717,20.672,6.5117c13.8463,3.8054,27.7621,6.6606,41.6181,8.8267
					c27.7373,4.3061,55.1579,6.0649,82.1899,6.4228c-10.6221,3.9783-23.699,7.1676-39.1062,7.0658
					c-18.5104-0.765-36.9554-2.5034-55.3254-5.5466c-18.3603-3.0559-36.6643-7.4186-54.6519-13.7363
					c0.4323-1.2912,1.2769-3.8143,1.702-5.084c-12.716-3.7995-25.2312-8.6645-37.1306-15.1176l-4.4474-2.4362l-4.3678-2.6194
					l-2.1741-1.3218l-2.1342-1.4083l-4.2503-2.8342l-4.1423-3.0264l-2.0614-1.5214l-2.0092-1.6077l-3.9927-3.24
					c-1.3022-1.1202-2.578-2.2776-3.8608-3.4197c-10.2542-9.1615-19.2266-19.8575-26.6771-31.3842
					c-7.4985-11.5176-13.2597-23.9771-17.5211-36.6629c-4.2728-12.6988-7.043-25.6413-8.696-38.5093
					c-1.6445-12.8997-2.2298-25.628-2.0616-38.4857c0.1945-12.8853,1.2873-25.9993,3.6244-39.2283
					c2.3571-13.2136,5.8752-26.5793,11.0852-39.6899c-1.2142,1.6461-1.7282,1.863-2.1011,1.4793
					c-0.3536-0.3754-0.4922-1.3253-0.6935-1.8842c0.1204-0.2546,0.2356-0.4985,0.3468-0.734
					c-0.1112,0.2355-0.2264,0.4794-0.3468,0.734c-0.1821-0.5031-0.4575-0.7143-1.0774,0.0111
					c-0.588,0.7365-1.4755,2.4293-2.8726,5.7256c1.3971-3.2963,2.2846-4.9891,2.8726-5.7256
					c0.6199-0.7254,0.8953-0.5142,1.0774-0.0111c-5.7136,12.8607-9.7105,26.1651-12.3247,39.3974
					c-2.6113,13.2453-3.8232,26.4296-4.034,39.352c-0.1843,12.899,0.4834,25.6239,2.2344,38.5416
					c1.7606,12.8819,4.666,25.8322,9.0368,38.5319c4.3628,12.6913,10.2002,25.1232,17.5616,36.7498
					c7.4214,11.5871,16.3244,22.314,26.3003,31.828c10.0475,9.4171,21.0854,17.6827,32.7268,24.634
					c11.6534,6.9213,23.833,12.7587,36.307,17.4654c-19.3972-7.1972-38.4547-16.8604-55.7342-29.9053
					c-8.6255-6.5096-16.7699-13.8544-24.1481-21.9672c-7.3819-8.1062-13.9833-16.9762-19.6177-26.3552
					c-5.6422-9.3776-10.3148-19.2482-14.057-29.3167l-1.3572-3.7872c-0.4471-1.2636-0.9196-2.5236-1.2841-3.8l-2.3117-7.6435
					l-1.9323-7.6817l-0.4697-1.9222l-0.3903-1.9237l-0.7737-3.8494c-1.9768-10.2605-3.2991-20.5399-3.8258-30.6938l-0.241-3.8167
					c-0.0551-1.2706-0.0708-2.5385-0.1067-3.8081c-0.0538-2.5405-0.1376-5.0737-0.156-7.6218
					c0.0895-5.1253,0.1073-10.237,0.5076-15.4172c1.2113-20.622,5.5046-41.8624,13.7945-62.1065
					c4.1392-10.1083,9.2914-19.9253,15.3826-29.1461c6.0851-9.2253,13.0988-17.8435,20.7935-25.6768
					c15.4075-15.7066,33.4029-28.1536,52.1901-37.7831c18.8272-9.6499,38.4908-16.6246,58.3794-21.7069
					c3.3877-0.8724,8.4823-2.1099,13.5857-3.1921c2.5515-0.5497,5.1042-1.0796,7.4456-1.5166
					c2.3408-0.4648,4.4698-0.8508,6.173-1.1413c13.9762-0.4276,27.6551-0.7107,41.2366-0.9312
					c13.5862-0.2024,27.0411-0.3136,40.6309-0.1268c-3.4164,3.3242,1.5772,8.462,0.6537,12.33
					c-0.4451,1.9384-2.3228,3.5299-7.3052,4.5243c-4.9884,1.0152-13.0644,1.3796-26.0636,1.4963
					c0.084,1.3458,0.2521,4.0417,0.3362,5.3882c12.9103,0.8866,23.7264,3.229,31.7538,6.1441
					c4.0154,1.4586,7.3385,3.0626,9.893,4.7102c1.2765,0.8237,2.3639,1.6581,3.2423,2.492
					c0.8648,0.8301,1.6018,1.6697,1.9261,2.4766c2.1971,3.332,0.8095,6.249-3.1295,8.6531
					c-4.2504,2.413-12.0726,4.2558-23.9256,5.7987c-13.3356,1.5868-27.7275,3.182-42.6153,5.4031
					c-14.8807,2.2163-30.2819,5.0529-45.4169,9.1756c-15.1194,4.1153-29.9677,9.571-43.321,16.7998
					c-13.3522,7.2024-25.1242,16.2344-34.0137,26.737c-3.3546,3.7189-6.2605,7.7234-9.0236,11.7827l-1.9901,3.0947
					c-0.664,1.0295-1.2256,2.1224-1.8517,3.1728c-1.2879,2.0796-2.2943,4.3261-3.4544,6.4749
					c-4.2233,8.8435-7.429,18.2364-9.6124,28.1743c-2.1365,9.9564-3.339,20.4006-3.7653,31.1986
					c-0.041,1.353-0.1634,2.6867-0.1539,4.0574l-0.0275,4.1036c0.0052,1.3654-0.0792,2.7462-0.0162,4.1021l0.1005,4.0838
					c-0.001,2.7454,0.2072,5.4148,0.3468,8.1082c0.0786,2.7178,0.4162,5.3328,0.6223,8.0013
					c0.7051,7.271,1.8898,14.5029,3.7949,21.4735c1.9279,6.9564,4.468,13.6964,7.6673,20.0961
					c6.377,12.8142,15.465,24.2132,26.8347,33.8287c11.3465,9.6383,24.9051,17.4882,39.5287,23.7854
					c14.6321,6.311,30.2825,11.1115,46.1068,15.0175c5.7871,1.2651,12.7974,2.2065,20.247,2.7874
					c7.4491,0.5893,15.3303,0.8255,22.851,0.9017c15.0505,0.1863,28.6247-0.346,34.7894,1.371
					c8.8092,1.4678,9.4044,4.235,8.2616,7.5448c-20.295,1.119-40.6355,0.9869-60.6247-0.7344
					c-19.9688-1.7597-39.65-5.0727-58.2275-10.7291c-22.6369-7.2659-43.8403-17.9501-60.4681-32.8858
					c-16.6578-14.8647-28.5214-33.7142-34.4205-54.806c5.2696,20.7941,16.7547,39.896,33.4625,54.9064
					c4.2008,3.7189,8.6611,7.232,13.3821,10.4856c4.7706,3.1864,9.6971,6.2447,14.9079,8.9314
					c5.2046,2.6885,10.5477,5.2282,16.1096,7.407c5.5389,2.218,11.2134,4.2318,17.0265,5.9614
					c18.4455,5.9535,37.9453,9.645,57.7162,11.8648c19.794,2.1634,39.9173,2.8362,60.0315,2.2629
					c-1.2846,2.8458-2.561,5.8101,0.0968,8.3062c0,0,3.1577-0.2245,7.1051-0.5053c3.9445-0.3144,8.671-0.7632,11.8167-1.1031
					c12.9488,1.9714,18.3345,5.0251,19.1685,9.0179c0.5826,4.0173-3.7875,8.864-10.0388,13.0292
					C780.1434,650.8718,776.4916,652.8362,772.3564,654.7886z"/>
			</g>
		</g>
	</g>
</g>
<g id="Layer_1">
	<g>
		<g>
			<g>
				<path style="&st1;" d="M249.018,507.4352c0.0656-1.2165-3.3267-2.2917,1.8482-3.061
					c16.3124-1.8105,29.621,1.7208,45.9452-0.0944c0.3483-0.6665,0.73-1.3343,1.0998-2.0032
					c12.6983,0.3208,25.9345,0.879,39.4406,1.2537c24.7976-1.2874,49.4568-2.7465,74.0053-4.4003
					c-0.6684-0.6885-0.9982-1.3348,1.4374-1.6942c10.1974-0.9372,24.3838-0.8218,39.0613-1.2103
					c2.1646-0.2032,4.3268-0.4065,6.4534-0.6009c1.651-0.4919,2.0528-1.1945,2.3054-1.6269
					c6.6321-0.2021,12.5365-0.2547,18.0099-0.265c71.854-6.7658,144.7904-14.2514,223.8572-21.9307
					c16.6844-2.4807,33.3784-4.9621,49.4938-6.4407c23.8936-1.7168,54.4745-1.6736,77.8107-2.3915
					c-3.8568-6.7695,52.8697-12.4518,41.2397-18.9817c15.5487-0.4793,38.909-1.1937,40.0302-3.1993
					c3.3759-6.0094,15.0703-13.2555,56.2219-18.4572c16.1296-1.4792,41.0481-0.0152,46.6989-1.4327
					c8.8969-2.242-21.1176-3.2873-12.223-5.5295c-120.1984,2.7366-235.7576,9.9562-356.6983,14.79
					c-41.0439,4.7296-318.6552,17.3037-390.023,18.8321c-2.1657,0.1171-4.3197,0.2276-6.4732,0.3483
					c-38.9233,1.1946-86.153,3.6309-118.9766,7.5926c-15.0355,2.2369-30.312,4.8366-45.5245,7.3637
					c7.1552,0.851,13.7854,1.725,19.5391,2.6183c-15.5726,0.4802-31.1356,0.9586-37.063,2.4503
					c-33.0181,4.2966-14.1068,6.996-1.1682,11.1878c9.2518,1.6886-3.0178,5.3484,11.4237,6.8682
					c-10.3514,0.3202-15.5391,0.4801-25.9385,0.7968c-1.1092,2.0063,31.8993-2.2914,24.8292,1.2066
					c-10.0055-0.346-21.1326,1.3032-31.4937,1.621c3.6942,2.5117,35.9392-0.4491,34.4506,2.2235
					c-5.5693,0.8309-29.2652-2.3804-31.1357,0.9571c-0.3697,0.6704,10.0032,0.3491,15.1909,0.1907
					c-31.8753,2.2903-49.3327,6.1087-20.058,8.4872c-10.1176,0.311-24.4728-0.4923-35.1506,0.3866
					c0.0127,0.0186,0.0586,0.0312,0.0833,0.0494c5.3429-0.1061,14.5745,0.1964,19.5043,0.0424
					c-6.0614,0.188-12.1468,0.3741-18.2178,0.561c0.9731,0.4195,2.0748,0.8265,3.2361,1.2311
					c4.548,0.2178,9.1167,0.357,13.8509,0.2139c-4.0227,0.1215-8.0549,0.2465-12.1014,0.372
					c3.0617,0.939,6.5755,1.8262,10.4254,2.6322c14.4512,1.5224,28.3383,4.0482,36.1139,3.81
					C123.211,511.2123,186.2945,509.7547,249.018,507.4352z"/>
			</g>
		</g>
	</g>
</g>
<g id="Layer_1_copy">
	<g>
		<g>
			<g>
				<path style="&st1;" d="M249.018,507.4352c0.0656-1.2165-3.3267-2.2917,1.8482-3.061
					c16.3124-1.8105,29.621,1.7208,45.9452-0.0944c0.3483-0.6665,0.73-1.3343,1.0998-2.0032
					c12.6983,0.3208,25.9345,0.879,39.4406,1.2537c24.7976-1.2874,49.4568-2.7465,74.0053-4.4003
					c-0.6684-0.6885-0.9982-1.3348,1.4374-1.6942c10.1974-0.9372,24.3838-0.8218,39.0613-1.2103
					c2.1646-0.2032,4.3268-0.4065,6.4534-0.6009c1.651-0.4919,2.0528-1.1945,2.3054-1.6269
					c6.6321-0.2021,12.5365-0.2547,18.0099-0.265c71.854-6.7658,144.7904-14.2514,223.8572-21.9307
					c16.6844-2.4807,33.3784-4.9621,49.4938-6.4407c23.8936-1.7168,54.4745-1.6736,77.8107-2.3915
					c-3.8568-6.7695,52.8697-12.4518,41.2397-18.9817c15.5487-0.4793,38.909-1.1937,40.0302-3.1993
					c3.3759-6.0094,15.0703-13.2555,56.2219-18.4572c16.1296-1.4792,41.0481-0.0152,46.6989-1.4327
					c8.8969-2.242-21.1176-3.2873-12.223-5.5295c-120.1984,2.7366-235.7576,9.9562-356.6983,14.79
					c-41.0439,4.7296-318.6552,17.3037-390.023,18.8321c-2.1657,0.1171-4.3197,0.2276-6.4732,0.3483
					c-38.9233,1.1946-86.153,3.6309-118.9766,7.5926c-15.0355,2.2369-30.312,4.8366-45.5245,7.3637
					c7.1552,0.851,13.7854,1.725,19.5391,2.6183c-15.5726,0.4802-31.1356,0.9586-37.063,2.4503
					c-33.0181,4.2966-14.1068,6.996-1.1682,11.1878c9.2518,1.6886-3.0178,5.3484,11.4237,6.8682
					c-10.3514,0.3202-15.5391,0.4801-25.9385,0.7968c-1.1092,2.0063,31.8993-2.2914,24.8292,1.2066
					c-10.0055-0.346-21.1326,1.3032-31.4937,1.621c3.6942,2.5117,35.9392-0.4491,34.4506,2.2235
					c-5.5693,0.8309-29.2652-2.3804-31.1357,0.9571c-0.3697,0.6704,10.0032,0.3491,15.1909,0.1907
					c-31.8753,2.2903-49.3327,6.1087-20.058,8.4872c-10.1176,0.311-24.4728-0.4923-35.1506,0.3866
					c0.0127,0.0186,0.0586,0.0312,0.0833,0.0494c5.3429-0.1061,14.5745,0.1964,19.5043,0.0424
					c-6.0614,0.188-12.1468,0.3741-18.2178,0.561c0.9731,0.4195,2.0748,0.8265,3.2361,1.2311
					c4.548,0.2178,9.1167,0.357,13.8509,0.2139c-4.0227,0.1215-8.0549,0.2465-12.1014,0.372
					c3.0617,0.939,6.5755,1.8262,10.4254,2.6322c14.4512,1.5224,28.3383,4.0482,36.1139,3.81
					C123.211,511.2123,186.2945,509.7547,249.018,507.4352z"/>
			</g>
		</g>
	</g>
</g>
<g id="Layer_3_copy">
	<g style="&st2;">
		<g>
			<g>
				<path d="M357.745,367.7361c-12.2578,5.9428-24.4757,12.692-35.513,20.891c-11.0438,8.1802-20.8492,17.8313-28.4665,29.0809
					c-7.6324,11.2203-13.0911,24.058-16.0534,37.6522c-1.4576,6.8017-2.323,13.7536-2.7033,20.6832
					c-0.0562,3.5038-0.2282,6.934-0.0352,10.4081c0.0777,1.7314,0.0824,3.4326,0.2352,5.1535
					c0.1557,1.7169,0.3104,3.4234,0.4642,5.1188c0.9702,8.1291,2.2549,16.2207,4.0337,24.0324
					c1.8295,7.7981,4.1083,15.3555,6.9245,22.5411c5.6226,14.3901,13.4149,27.1995,23.4464,38.0938
					c10.0875,10.8383,22.3495,19.9459,36.3419,27.0557c6.9745,3.5684,14.3159,6.6846,21.8959,9.3641
					c7.5999,2.6495,15.4264,4.8709,23.3589,6.7033c-0.5672,2.6632-6.9598,5.3555-1.8313,7.9645
					c5.2457,2.2447,9.2301,4.1312,12.1987,5.8465c1.4873,0.8496,2.7156,1.6753,3.7285,2.4711
					c1.0181,0.7781,1.8175,1.5365,2.44,2.2786c2.4942,2.975,2.1371,5.6589,1.7447,8.3566
					c-0.1893,1.3496-4.6563,0.7083-8.3504,0.0583c-3.6995-0.6136-6.6413-1.2298-3.9447,0.6897
					c-8.8957-1.612-20.6661-4.0887-28.0467-5.6797c-1.8449-0.3945-3.4307-0.6855-4.6438-0.8387
					c-1.2078-0.1669-2.0367-0.213-2.3868-0.058c-0.6907,0.2865,0.5219,1.3997,4.6996,3.3801
					c2.5001,2.2353,9.8882,4.3591,17.3303,6.2256c7.4393,1.9087,14.9382,3.5381,17.6634,6.0701
					c2.7428,2.4927,0.9134,4.2783-0.9841,6.0509c-1.8807,1.7481-3.8315,3.4837-0.9936,6.045
					c1.5931,0.2458,3.5836,0.553,5.7728,0.8909c2.1925,0.2906,4.5817,0.6468,6.9752,0.9296
					c4.7853,0.594,9.5762,1.076,12.7717,1.3418c3.0739,1.6399,1.3234,3.5381-0.4479,5.0921
					c-1.7652,1.5542-3.5306,2.7658-0.2608,3.0539c9.6853,2.2326,21.1834,3.1351,33.479,3.1462
					c6.1514-0.0003,12.5038-0.2238,18.9759-0.6226c3.2371-0.2002,6.5052-0.448,9.811-0.7347
					c1.6653-0.1563,3.3339-0.3129,5.0039-0.4697l2.5622-0.2699l2.8454-0.3351c0.1788,1.3505,1.895,2.497,2.0549,3.6781
					c0.0799,0.5905-0.2293,1.1897-1.3143,1.8273c-0.9115,0.3631-1.8267,0.7015-2.9633,1.0339
					c-1.1557,0.3359-2.5495,0.6662-4.2567,0.9909c-7.484,0.7441-14.7717,1.2141-22.1006,1.4988
					c-7.3173,0.2736-14.631,0.3723-21.9615,0.2535c-14.6578-0.2349-29.3863-1.2417-44.1783-3.1972
					c-14.7879-1.9618-29.6423-4.9219-44.433-9.1356c-14.7825-4.2267-29.5041-9.8265-43.7834-17.121
					c-14.2268-7.3859-28.0676-16.4424-40.4822-27.655c-6.1953-5.5919-12.144-11.5747-17.5079-18.1
					c-5.3777-6.502-10.3579-13.3686-14.7559-20.5755c-4.3396-7.2283-8.2633-14.697-11.55-22.3732
					c-3.2254-7.679-6.1247-15.4904-8.2863-23.3849c-4.5761-15.7816-6.9574-31.731-8.0395-47.4173
					c-1.0322-15.6456-0.869-31.5968,1.3972-47.8692l0.8824-6.0904l1.1467-6.1037c0.2004-1.017,0.3751-2.0334,0.6006-3.0501
					l0.719-3.0497c0.4954-2.0318,0.9422-4.0658,1.4953-6.0923c2.199-8.1129,4.9838-16.1563,8.2985-24.0464
					c3.4312-7.8559,7.4219-15.5206,11.9817-22.861c4.5775-7.3326,9.7905-14.2595,15.4088-20.7636
					c1.4323-1.5975,2.8105-3.2593,4.305-4.7875l4.4631-4.6119l4.6322-4.3957c1.5438-1.4677,3.1711-2.8085,4.7601-4.2102
					c6.4269-5.491,13.1603-10.4824,20.0844-14.9924c13.8812-8.9579,28.4578-15.993,43.1808-21.5356
					c14.7388-5.5072,29.6342-9.5892,44.5006-12.5985c14.872-2.9808,29.7199-4.91,44.5139-5.9944
					c14.8168-1.0703,29.4964-1.3179,44.4382-0.6703c3.4244,0.2661,6.1294,0.625,8.2141,1.0276
					c1.0394,0.2011,1.9367,0.4159,2.6818,0.6351c0.8024,0.2261,1.2782,0.4407,2.0369,0.6976
					c0.6886,0.4449,0.8678,0.8878,0.6227,1.3254c-0.1225,0.2188-0.3511,0.4363-0.675,0.6521
					c-0.4834,0.2016-1.1353,0.401-1.7015,0.6175c-4.8314,1.6803-14.8273,3.6592-24.6764,5.8162
					c6.5845-1.3881,6.541,2.6976,13.1553,1.4784c-0.0575,2.0534-3.4416,4.6371-9.8668,7.0186
					c-6.4392,2.3855-15.9031,4.5744-28.4748,6.1951c6.3158-0.4782,12.6332-0.798,18.9712-0.9662
					c6.3511,1.2302,0.0793,4.0825,0.1748,6.8063c-6.2253,0.1513-12.4316,0.5302-12.3472,1.8885
					c0.0799,1.3569,0.2402,4.0783,0.3202,5.4368c3.0451-0.1688,7.62-0.404,12.1985-0.516
					c4.5782-0.1193,9.1564-0.1334,12.2019-0.1031c-6.0924-0.0717-12.2036,0.1081-12.1636,1.4634
					c0.0349,1.3618,0.1049,4.0855,0.14,5.4504c-5.9692,0.8359-13.4457,0.8565-20.9393,1.1454
					c-7.4853,0.2888-14.9837,0.8461-20.7997,2.3935l0.5909,4.0394c5.9339-0.1852,13.2414-1.0619,20.5937-1.853
					c7.3481-0.7898,14.7354-1.4895,20.6592-1.6443c-5.8893,1.5356-5.8085,2.9431-5.698,5.6524
					c-8.7058,1.0503-17.4588,1.0586-26.1728,1.7554c-8.6995,0.67-17.3627,2.0866-25.375,5.8066
					c5.5986-1.1698,11.2757-2.1373,16.9791-2.9759c-5.2141,4.2057-14.9168,6.1353-25.2329,8.3156
					C376.1414,361.6653,365.1658,364.0773,357.745,367.7361z"/>
			</g>
		</g>
	</g>
	<g style="&st2;">
		<g>
			<g>
				<path d="M772.3564,654.7886c-3.3164,0.0288-6.6279,0.0352-9.8994,0.0081c-15.123,0.1238-30.1613-0.1235-45.3236-0.9152
					c-15.1571-0.8123-30.4331-2.1991-45.8922-4.545c-15.4507-2.3782-31.0984-5.7565-46.7762-10.7749
					c-15.6434-5.0873-31.3655-11.8145-46.3156-21.173c-10.3286-6.7549-20.5983-14.5584-30.0982-23.6294
					c-2.3135-2.3375-4.7277-4.5798-6.9289-7.0658c-1.1184-1.223-2.2583-2.4281-3.3615-3.6705l-3.2146-3.8243l-1.6033-1.9195
					l-1.5203-1.9912l-3.039-3.9891l-2.8531-4.1293c-0.9526-1.3762-1.909-2.7504-2.7622-4.1893
					c-7.1492-11.3124-12.8796-23.4609-17.0236-35.7739c-4.1169-12.3249-6.7431-24.7555-8.2187-36.7458
					c1.3596,14.2503,4.4338,28.6733,9.3252,42.7405l0.9069,2.6416l1.0349,2.607l2.0936,5.214l2.359,5.1275l1.1922,2.5622
					l1.3182,2.5092c0.8867,1.6695,1.757,3.3497,2.6694,5.009l2.9181,4.8873c0.9459,1.6476,2.0238,3.2146,3.0838,4.7945
					c1.0816,1.5641,2.0767,3.1933,3.2411,4.7007c4.4434,6.1964,9.4417,11.9809,14.7103,17.4826
					c5.3233,5.4528,11.0471,10.4629,16.9905,15.1433c5.9758,4.6369,12.2365,8.8135,18.6364,12.6804
					c6.4179,3.835,13.0249,7.2208,19.7074,10.3473c6.6929,3.1027,13.4993,5.7946,20.3407,8.2787
					c6.8475,2.465,13.7543,4.5717,20.672,6.5117c13.8463,3.8054,27.7621,6.6606,41.6181,8.8267
					c27.7373,4.3061,55.1579,6.0649,82.1899,6.4228c-10.6221,3.9783-23.699,7.1676-39.1062,7.0658
					c-18.5104-0.765-36.9554-2.5034-55.3254-5.5466c-18.3603-3.0559-36.6643-7.4186-54.6519-13.7363
					c0.4323-1.2912,1.2769-3.8143,1.702-5.084c-12.716-3.7995-25.2312-8.6645-37.1306-15.1176l-4.4474-2.4362l-4.3678-2.6194
					l-2.1741-1.3218l-2.1342-1.4083l-4.2503-2.8342l-4.1423-3.0264l-2.0614-1.5214l-2.0092-1.6077l-3.9927-3.24
					c-1.3022-1.1202-2.578-2.2776-3.8608-3.4197c-10.2542-9.1615-19.2266-19.8575-26.6771-31.3842
					c-7.4985-11.5176-13.2597-23.9771-17.5211-36.6629c-4.2728-12.6988-7.043-25.6413-8.696-38.5093
					c-1.6445-12.8997-2.2298-25.628-2.0616-38.4857c0.1945-12.8853,1.2873-25.9993,3.6244-39.2283
					c2.3571-13.2136,5.8752-26.5793,11.0852-39.6899c-1.2142,1.6461-1.7282,1.863-2.1011,1.4793
					c-0.3536-0.3754-0.4922-1.3253-0.6935-1.8842c0.1204-0.2546,0.2356-0.4985,0.3468-0.734
					c-0.1112,0.2355-0.2264,0.4794-0.3468,0.734c-0.1821-0.5031-0.4575-0.7143-1.0774,0.0111
					c-0.588,0.7365-1.4755,2.4293-2.8726,5.7256c1.3971-3.2963,2.2846-4.9891,2.8726-5.7256
					c0.6199-0.7254,0.8953-0.5142,1.0774-0.0111c-5.7136,12.8607-9.7105,26.1651-12.3247,39.3974
					c-2.6113,13.2453-3.8232,26.4296-4.034,39.352c-0.1843,12.899,0.4834,25.6239,2.2344,38.5416
					c1.7606,12.8819,4.666,25.8322,9.0368,38.5319c4.3628,12.6913,10.2002,25.1232,17.5616,36.7498
					c7.4214,11.5871,16.3244,22.314,26.3003,31.828c10.0475,9.4171,21.0854,17.6827,32.7268,24.634
					c11.6534,6.9213,23.833,12.7587,36.307,17.4654c-19.3972-7.1972-38.4547-16.8604-55.7342-29.9053
					c-8.6255-6.5096-16.7699-13.8544-24.1481-21.9672c-7.3819-8.1062-13.9833-16.9762-19.6177-26.3552
					c-5.6422-9.3776-10.3148-19.2482-14.057-29.3167l-1.3572-3.7872c-0.4471-1.2636-0.9196-2.5236-1.2841-3.8l-2.3117-7.6435
					l-1.9323-7.6817l-0.4697-1.9222l-0.3903-1.9237l-0.7737-3.8494c-1.9768-10.2605-3.2991-20.5399-3.8258-30.6938l-0.241-3.8167
					c-0.0551-1.2706-0.0708-2.5385-0.1067-3.8081c-0.0538-2.5405-0.1376-5.0737-0.156-7.6218
					c0.0895-5.1253,0.1073-10.237,0.5076-15.4172c1.2113-20.622,5.5046-41.8624,13.7945-62.1065
					c4.1392-10.1083,9.2914-19.9253,15.3826-29.1461c6.0851-9.2253,13.0988-17.8435,20.7935-25.6768
					c15.4075-15.7066,33.4029-28.1536,52.1901-37.7831c18.8272-9.6499,38.4908-16.6246,58.3794-21.7069
					c3.3877-0.8724,8.4823-2.1099,13.5857-3.1921c2.5515-0.5497,5.1042-1.0796,7.4456-1.5166
					c2.3408-0.4648,4.4698-0.8508,6.173-1.1413c13.9762-0.4276,27.6551-0.7107,41.2366-0.9312
					c13.5862-0.2024,27.0411-0.3136,40.6309-0.1268c-3.4164,3.3242,1.5772,8.462,0.6537,12.33
					c-0.4451,1.9384-2.3228,3.5299-7.3052,4.5243c-4.9884,1.0152-13.0644,1.3796-26.0636,1.4963
					c0.084,1.3458,0.2521,4.0417,0.3362,5.3882c12.9103,0.8866,23.7264,3.229,31.7538,6.1441
					c4.0154,1.4586,7.3385,3.0626,9.893,4.7102c1.2765,0.8237,2.3639,1.6581,3.2423,2.492
					c0.8648,0.8301,1.6018,1.6697,1.9261,2.4766c2.1971,3.332,0.8095,6.249-3.1295,8.6531
					c-4.2504,2.413-12.0726,4.2558-23.9256,5.7987c-13.3356,1.5868-27.7275,3.182-42.6153,5.4031
					c-14.8807,2.2163-30.2819,5.0529-45.4169,9.1756c-15.1194,4.1153-29.9677,9.571-43.321,16.7998
					c-13.3522,7.2024-25.1242,16.2344-34.0137,26.737c-3.3546,3.7189-6.2605,7.7234-9.0236,11.7827l-1.9901,3.0947
					c-0.664,1.0295-1.2256,2.1224-1.8517,3.1728c-1.2879,2.0796-2.2943,4.3261-3.4544,6.4749
					c-4.2233,8.8435-7.429,18.2364-9.6124,28.1743c-2.1365,9.9564-3.339,20.4006-3.7653,31.1986
					c-0.041,1.353-0.1634,2.6867-0.1539,4.0574l-0.0275,4.1036c0.0052,1.3654-0.0792,2.7462-0.0162,4.1021l0.1005,4.0838
					c-0.001,2.7454,0.2072,5.4148,0.3468,8.1082c0.0786,2.7178,0.4162,5.3328,0.6223,8.0013
					c0.7051,7.271,1.8898,14.5029,3.7949,21.4735c1.9279,6.9564,4.468,13.6964,7.6673,20.0961
					c6.377,12.8142,15.465,24.2132,26.8347,33.8287c11.3465,9.6383,24.9051,17.4882,39.5287,23.7854
					c14.6321,6.311,30.2825,11.1115,46.1068,15.0175c5.7871,1.2651,12.7974,2.2065,20.247,2.7874
					c7.4491,0.5893,15.3303,0.8255,22.851,0.9017c15.0505,0.1863,28.6247-0.346,34.7894,1.371
					c8.8092,1.4678,9.4044,4.235,8.2616,7.5448c-20.295,1.119-40.6355,0.9869-60.6247-0.7344
					c-19.9688-1.7597-39.65-5.0727-58.2275-10.7291c-22.6369-7.2659-43.8403-17.9501-60.4681-32.8858
					c-16.6578-14.8647-28.5214-33.7142-34.4205-54.806c5.2696,20.7941,16.7547,39.896,33.4625,54.9064
					c4.2008,3.7189,8.6611,7.232,13.3821,10.4856c4.7706,3.1864,9.6971,6.2447,14.9079,8.9314
					c5.2046,2.6885,10.5477,5.2282,16.1096,7.407c5.5389,2.218,11.2134,4.2318,17.0265,5.9614
					c18.4455,5.9535,37.9453,9.645,57.7162,11.8648c19.794,2.1634,39.9173,2.8362,60.0315,2.2629
					c-1.2846,2.8458-2.561,5.8101,0.0968,8.3062c0,0,3.1577-0.2245,7.1051-0.5053c3.9445-0.3144,8.671-0.7632,11.8167-1.1031
					c12.9488,1.9714,18.3345,5.0251,19.1685,9.0179c0.5826,4.0173-3.7875,8.864-10.0388,13.0292
					C780.1434,650.8718,776.4916,652.8362,772.3564,654.7886z"/>
			</g>
		</g>
	</g>
</g>
</svg>
